<?xml version="1.0" standalone="no"?><!DOCTYPE svg PUBLIC "-//W3C//DTD SVG 1.1//EN" "http://www.w3.org/Graphics/SVG/1.1/DTD/svg11.dtd"><svg t="1533479805059" class="icon" style="" viewBox="0 0 1024 1024" version="1.1" xmlns="http://www.w3.org/2000/svg" p-id="23433" data-spm-anchor-id="a313x.7781069.0.i22" xmlns:xlink="http://www.w3.org/1999/xlink" width="30" height="30"><defs><style type="text/css"></style></defs><path d="M824.535109 48.204885 199.464891 48.204885c-49.318242 0-89.295745 39.977503-89.295745 89.295745l0 714.365964c0 64.650439 53.543474 97.357352 89.295745 89.295745l311.903729-89.295745 313.166489 89.295745c31.222095 7.755638 89.295745-24.707728 89.295745-89.295745L913.830855 137.500631C913.830855 88.183412 873.850282 48.204885 824.535109 48.204885zM846.858534 829.54317c0 24.658609-23.073508 50.64854-44.647873 44.647873l-291.215548-89.295745-289.206798 89.295745c-16.9613 5.562692-44.647873-19.989263-44.647873-44.647873L177.140443 159.825079c0-24.656563 19.989263-44.647873 44.647873-44.647873l580.422346 0c24.658609 0 44.647873 19.99131 44.647873 44.647873L846.858534 829.54317z" p-id="23434"></path><path d="M382.480134 669.216671c-4.073782 0-8.127098-1.264806-11.550057-3.751441-6.049786-4.3951-9.079796-11.844769-7.816013-19.215644l22.989597-134.046972-97.390098-94.931093c-5.354961-5.219885-7.28287-13.027711-4.971222-20.140713 2.310625-7.113001 8.459672-12.296047 15.860223-13.371542l134.589324-19.557428L494.380714 242.243183c3.310396-6.705726 10.139941-10.951423 17.618263-10.951423s14.307867 4.245697 17.618263 10.951423l60.190871 121.958656 134.588301 19.557428c7.401574 1.075495 13.549597 6.258541 15.861246 13.371542 2.310625 7.113001 0.38374 14.920828-4.972245 20.140713l-97.388051 94.931093 22.99062 134.045949c1.263783 7.370875-1.765203 14.821567-7.816013 19.216667-6.051833 4.3951-14.071484 4.976338-20.691251 1.49505l-120.380718-63.286372L391.620305 666.960281C388.745838 668.471704 385.605312 669.216671 382.480134 669.216671L382.480134 669.216671zM344.649528 416.920528l76.278267 74.353428c4.630461 4.514827 6.743588 11.017938 5.650697 17.390066l-18.007119 104.990193 94.285387-49.567929c5.723352-3.00852 12.561084-3.00852 18.285458 0l94.287433 49.567929-18.008142-104.990193c-1.092891-6.373151 1.020236-12.876262 5.65172-17.391089l76.277244-74.353428-105.413841-15.31787c-6.399757-0.930185-11.930727-4.948709-14.792914-10.748808l-47.14474-95.52154-47.142693 95.522564c-2.862187 5.799076-8.394181 9.8176-14.793938 10.748808L344.649528 416.920528z" p-id="23435"></path></svg>