<?xml version="1.0" standalone="no"?><!DOCTYPE svg PUBLIC "-//W3C//DTD SVG 1.1//EN" "http://www.w3.org/Graphics/SVG/1.1/DTD/svg11.dtd"><svg t="1533479917273" class="icon" style="" viewBox="0 0 1024 1024" version="1.1" xmlns="http://www.w3.org/2000/svg" p-id="27226" xmlns:xlink="http://www.w3.org/1999/xlink" width="30" height="30"><defs><style type="text/css"></style></defs><path d="M905.846154 196.923077 433.230769 196.923077c0-65.220923-52.932923-118.153846-118.153846-118.153846L118.153846 78.769231C52.932923 78.769231 0 131.702154 0 196.923077l0 669.538462c0 65.220923 52.932923 118.153846 118.153846 118.153846l787.692308 0c65.220923 0 118.153846-52.932923 118.153846-118.153846L1024 315.076923C1024 249.856 971.067077 196.923077 905.846154 196.923077zM945.230769 866.461538c0 21.740308-17.644308 39.384615-39.384615 39.384615L118.153846 905.846154c-21.740308 0-39.384615-17.644308-39.384615-39.384615L78.769231 315.076923c0-21.740308 17.644308-39.384615 39.384615-39.384615l787.692308 0c21.740308 0 39.384615 17.644308 39.384615 39.384615L945.230769 866.461538z" p-id="27227"></path></svg>