<?xml version="1.0" standalone="no"?><!DOCTYPE svg PUBLIC "-//W3C//DTD SVG 1.1//EN" "http://www.w3.org/Graphics/SVG/1.1/DTD/svg11.dtd"><svg t="1533480064513" class="icon" style="" viewBox="0 0 1024 1024" version="1.1" xmlns="http://www.w3.org/2000/svg" p-id="33170" xmlns:xlink="http://www.w3.org/1999/xlink" width="30" height="30"><defs><style type="text/css"></style></defs><path d="M139.36 331.04a232.48 232.48 0 0 1 66.4-163.04 36.64 36.64 0 1 0-52-51.84 307.04 307.04 0 0 0 3.36 432A36.8 36.8 0 0 0 208 496a231.52 231.52 0 0 1-68.64-164.96zM688 192a36.64 36.64 0 0 0-0.96 51.84 126.08 126.08 0 0 1-2.24 176 36.8 36.8 0 1 0 50.56 53.28l1.12-0.96a199.68 199.68 0 0 0 3.52-279.84A36.8 36.8 0 0 0 688 192z m182.88-75.36a36.8 36.8 0 0 0-53.12 50.88A233.6 233.6 0 0 1 816 496a36.64 36.64 0 0 0 51.68 52.16 307.04 307.04 0 0 0 3.36-432zM340.32 472.48a36.8 36.8 0 0 0 0-52 125.92 125.92 0 0 1-2.24-176 36.8 36.8 0 0 0-52.96-50.88A199.36 199.36 0 0 0 288 472.8a36.8 36.8 0 0 0 52 0zM565.76 416a97.44 97.44 0 1 0-109.76 0L291.04 869.44a36.8 36.8 0 1 0 69.12 24.96l34.88-96h231.52l35.68 98.24a33.28 33.28 0 0 0 42.56 19.84l6.72-2.4a33.28 33.28 0 0 0 19.84-42.56z m-55.04 64l44.48 122.08h-88.8z m-91.84 252.8l23.68-65.44h136.48l23.68 65.44z m0 0" p-id="33171"></path></svg>