<?xml version="1.0" standalone="no"?><!DOCTYPE svg PUBLIC "-//W3C//DTD SVG 1.1//EN" "http://www.w3.org/Graphics/SVG/1.1/DTD/svg11.dtd"><svg t="1533473811893" class="icon" style="" viewBox="0 0 1024 1024" version="1.1" xmlns="http://www.w3.org/2000/svg" p-id="5308" xmlns:xlink="http://www.w3.org/1999/xlink" width="50" height="50"><defs><style type="text/css"></style></defs><path d="M910.839106 113.298621H777.785761V80.040157c0-19.962614-13.302346-33.26496-33.258464-33.264961-19.962614 0-33.26496 13.302346-33.264961 33.264961v33.258464H312.115294V80.040157c0-19.962614-13.307543-33.26496-33.264961-33.264961-19.956118 0-33.258464 13.302346-33.258464 33.264961v33.258464H112.538524c-39.913535 0-66.523424 26.611189-66.523425 59.87485v745.074307c0 33.263661 26.609889 59.87485 66.523425 59.87485h798.300582c39.912236 0 66.523424-26.611189 66.523425-59.87485V173.173471c0-33.263661-26.611189-59.87485-66.523425-59.87485z m-731.777158 66.523424h66.529921V213.087006c0 19.956118 13.302346 33.26496 33.258464 33.26496 19.957417 0 33.26496-13.308843 33.264961-33.26496v-33.264961H711.262336V213.087006c0 19.956118 13.302346 33.26496 33.264961 33.26496 19.956118 0 33.258464-13.308843 33.258464-33.26496v-33.264961h66.523424c39.918732 0 66.529921 26.611189 66.529921 66.529921v66.523424H112.538524v-66.523424c0-39.918732 26.611189-66.529921 66.523424-66.529921z m665.247237 731.777158h-665.247237c-39.912236 0-66.523424-26.611189-66.523424-66.529921V379.398815h798.300582v465.670467c0 39.918732-26.611189 66.529921-66.529921 66.529921z m0 0" p-id="5309" fill="#ffffff"></path><path d="M426.261065 780.388281a38.689584 38.689584 0 0 0 27.366089 11.337788c10.268455 0 20.114634-4.079837 27.367387-11.337788l232.251843-232.368781c15.120082-15.120082 15.120082-39.634183 0-54.733476-15.120082-15.120082-39.613394-15.120082-54.733476 0L453.627154 698.26273l-88.758534-88.794915c-15.120082-15.120082-39.613394-15.099293-54.733476-0.020789-15.125279 15.120082-15.125279 39.634183 0 54.754266l116.125921 116.186989z m0 0" p-id="5310" fill="#ffffff"></path></svg>