<?xml version="1.0" standalone="no"?><!DOCTYPE svg PUBLIC "-//W3C//DTD SVG 1.1//EN" "http://www.w3.org/Graphics/SVG/1.1/DTD/svg11.dtd"><svg t="1533480129329" class="icon" style="" viewBox="0 0 1024 1024" version="1.1" xmlns="http://www.w3.org/2000/svg" p-id="35646" data-spm-anchor-id="a313x.7781069.0.i31" xmlns:xlink="http://www.w3.org/1999/xlink" width="25" height="25"><defs><style type="text/css"></style></defs><path d="M516.5 15.5l-433 250v500l433 250 433-250v-500l-433-250z m362.2 709.1L516.5 933.8 154.3 724.6V306.4L516.5 97.3l362.2 209.1v418.2z" p-id="35647"></path><path d="M357.2 515.5c0 87.8 71.5 159.3 159.3 159.3s159.3-71.5 159.3-159.3-71.5-159.3-159.3-159.3-159.3 71.5-159.3 159.3z m247.8 0c0 48.8-39.7 88.5-88.5 88.5S428 564.3 428 515.5s39.7-88.5 88.5-88.5 88.5 39.7 88.5 88.5z" p-id="35648"></path></svg>