<?xml version="1.0" standalone="no"?><!DOCTYPE svg PUBLIC "-//W3C//DTD SVG 1.1//EN" "http://www.w3.org/Graphics/SVG/1.1/DTD/svg11.dtd"><svg t="1533281846464" class="icon" style="" viewBox="0 0 1024 1024" version="1.1" xmlns="http://www.w3.org/2000/svg" p-id="939" xmlns:xlink="http://www.w3.org/1999/xlink" width="70" height="70"><defs><style type="text/css"></style></defs><path d="M675.84 341.333333m-81.92 0a81.92 81.92 0 1 0 163.84 0 81.92 81.92 0 1 0-163.84 0Z" fill="#24B6F4" p-id="940"></path><path d="M428.032 615.082667L327.68 530.432l-27.306667-22.528c-12.288-10.24-36.181333-12.970667-59.392-10.922667l-47.786666 4.096c-23.210667 2.048-31.402667 12.288-19.114667 22.528l93.525333 78.506667L368.64 686.08c12.288 10.24 31.402667 8.874667 41.642667-3.413333l21.845333-25.941334c10.24-12.970667 8.874667-31.402667-4.096-41.642666zM796.672 759.808l-238.933333-208.213333 66.901333-55.978667c10.24-12.288 8.874667-31.402667-3.413333-41.642667l-4.096-3.413333c-1.365333-2.048-3.413333-4.778667-5.461334-6.144l-116.053333-97.621333-27.306667-22.528c-12.288-10.24-36.181333-12.970667-59.392-10.922667l-47.786666 4.096c-23.210667 2.048-31.402667 12.288-19.114667 22.528l93.525333 77.824 29.354667 24.576-32.085333 36.864-0.682667 0.682667L409.6 505.173333c-10.922667 12.288-10.24 30.72 1.365333 41.642667l258.730667 222.549333c12.288 10.922667 35.498667 15.018667 58.709333 13.653334l47.786667-2.048c23.893333-0.682667 32.768-10.24 20.48-21.162667z" fill="#24B6F4" p-id="941"></path></svg>