<?xml version="1.0" standalone="no"?><!DOCTYPE svg PUBLIC "-//W3C//DTD SVG 1.1//EN" "http://www.w3.org/Graphics/SVG/1.1/DTD/svg11.dtd"><svg t="1533283472578" class="icon" style="" viewBox="0 0 1024 1024" version="1.1" xmlns="http://www.w3.org/2000/svg" p-id="8124" xmlns:xlink="http://www.w3.org/1999/xlink" width="35" height="35"><defs><style type="text/css"></style></defs><path d="M507.6 526.6m-404.6 0a404.6 404.6 0 1 0 809.2 0 404.6 404.6 0 1 0-809.2 0Z" fill="#EFBC41" p-id="8125"></path><path d="M663.6 644.9l0.3 0.2-210-354.5c263-6.7 183.4-218.5 183.4-218.5-85 91.7-72.9 53.5-174 76.9C310 184.4 358.2 273 358.2 273l197.9 276.6c3.8 5.3 6.4 11.3 7.8 17.6l0.2 0.7c-20.7-6.8-43-10.6-66.5-10.6-102.5 0-185.7 70.8-185.7 158s83.1 158 185.7 158c102.5 0 185.7-70.8 185.7-158-0.1-25.3-7.2-49.2-19.7-70.4z" fill="#20A857" p-id="8126"></path></svg>