<?xml version="1.0" standalone="no"?><!DOCTYPE svg PUBLIC "-//W3C//DTD SVG 1.1//EN" "http://www.w3.org/Graphics/SVG/1.1/DTD/svg11.dtd"><svg t="1533213970523" class="icon" style="" viewBox="0 0 1024 1024" version="1.1" xmlns="http://www.w3.org/2000/svg" p-id="7808" xmlns:xlink="http://www.w3.org/1999/xlink" width="25" height="25"><defs><style type="text/css"></style></defs><path d="M918.845055 838.014098 748.292658 667.475004c44.350091-60.246129 70.584592-134.609791 70.584592-214.985376 0-200.382796-163.039283-363.416963-363.432313-363.416963s-363.427196 163.034167-363.427196 363.416963c0 200.388936 163.034167 363.42208 363.427196 363.42208 80.378655 0 154.744363-26.234501 214.992539-70.583568l170.550351 170.537048c10.748808 10.743692 24.832572 16.121166 38.925544 16.121166 14.093996 0 28.176736-5.377474 38.930661-16.121166C940.339602 894.361431 940.339602 859.506599 918.845055 838.014098zM181.474145 452.489628c0-151.063531 122.903168-273.966699 273.971815-273.966699s273.976932 122.903168 273.976932 273.966699c0 151.065578-122.908284 273.967722-273.976932 273.967722S181.474145 603.555206 181.474145 452.489628z" p-id="7809" fill="#8a8a8a"></path></svg>