<?xml version="1.0" standalone="no"?><!DOCTYPE svg PUBLIC "-//W3C//DTD SVG 1.1//EN" "http://www.w3.org/Graphics/SVG/1.1/DTD/svg11.dtd"><svg t="1533293531174" class="icon" style="" viewBox="0 0 1024 1024" version="1.1" xmlns="http://www.w3.org/2000/svg" p-id="29239" xmlns:xlink="http://www.w3.org/1999/xlink" width="35" height="35"><defs><style type="text/css"></style></defs><path d="M886.171 1005.652L532.353 738.426s-15.968-10.953-23.375-10.953c-8.805 0-28.331 14.317-28.331 14.317l-351.135 265.197s-5.755 4.754-3.764 10.669c2.001 5.944 8.961 4.399 8.961 4.399h749.26s6.024 0.619 7.931-5.036c2.168-6.439-5.729-11.367-5.729-11.367zM461.808 710.954c0-5.82-11.952-13.319-11.952-13.319L80.16 440.531s-18.642-10.241-29.055-4.82c-10.27 5.347-9.485 24.237-9.485 24.237v493.823s-0.551 23.146 11.537 29.438c14.569 7.583 42.384-12.534 42.384-12.534L452.66 722.318s9.148-6.395 9.148-11.364zM982.38 459.948s0.785-18.89-9.483-24.237c-10.415-5.421-29.055 4.82-29.055 4.82L574.144 697.635s-11.952 7.499-11.952 13.319c0 4.969 9.148 11.364 9.148 11.364l357.12 248.356s27.813 20.117 42.385 12.534c12.086-6.293 11.535-29.438 11.535-29.438V459.948zM725.046 198.318H310.16c-19.629 0-35.542 16.351-35.542 36.522s15.914 36.522 35.542 36.522h414.886c19.627 0 35.542-16.351 35.542-36.522s-15.915-36.522-35.542-36.522zM725.046 348.391H310.16c-19.629 0-35.542 16.351-35.542 36.522s15.914 36.521 35.542 36.521h414.886c19.627 0 35.542-16.351 35.542-36.521s-15.915-36.522-35.542-36.522zM760.588 521.704c0-20.17-15.915-36.522-35.542-36.522H310.16c-19.629 0-35.542 16.352-35.542 36.522 0 20.171 15.914 36.521 35.542 36.521h414.886c19.627 0.001 35.542-16.35 35.542-36.521z" fill="#dbdbdb" p-id="29240"></path><path d="M212.041 158.298c0-43.177 27.025-78.178 60.36-78.178h490.402c33.336 0 60.362 35.001 60.362 78.178v308.045l91.202-65.572V79.942c0-43.177-35.09-78.178-78.377-78.178H199.214c-43.286 0-78.376 35.001-78.376 78.178v332.45l91.203 66.444V158.298zM606.872 619.317H413.528l96.086 69.06z" fill="#dbdbdb" p-id="29241"></path></svg>