<?xml version="1.0" standalone="no"?><!DOCTYPE svg PUBLIC "-//W3C//DTD SVG 1.1//EN" "http://www.w3.org/Graphics/SVG/1.1/DTD/svg11.dtd"><svg t="1533283910866" class="icon" style="" viewBox="0 0 1024 1024" version="1.1" xmlns="http://www.w3.org/2000/svg" p-id="11362" data-spm-anchor-id="a313x.7781069.0.i38" xmlns:xlink="http://www.w3.org/1999/xlink" width="35" height="35"><defs><style type="text/css"></style></defs><path d="M459 825v127.8h-164.8v41.6h366.6v-38l-158.6-4.6-2-128.8" fill="#efb336" p-id="11363" data-spm-anchor-id="a313x.7781069.0.i37" class="selected"></path><path d="M676.4 1010H278.6v-72.8h164.8v-112.2h31.2v143.4h-164.8v10.4h335.4v-7.2l-158.2-4.6-2.4-143.6 31.2-0.6 1.8 113.8 158.8 4.8z" fill="#efb336" p-id="11364" data-spm-anchor-id="a313x.7781069.0.i34" class="selected"></path><path d="M224.8 327.8a208.2 205.2 90 1 0 410.4 0 208.2 205.2 90 1 0-410.4 0Z" fill="#FFFFFF" p-id="11365"></path><path d="M430 551.6c-121.8 0-220.8-100.4-220.8-223.8S308.2 104 430 104c121.8 0 220.8 100.4 220.8 223.8S551.6 551.6 430 551.6z m0-416.4c-104.6 0-189.6 86.4-189.6 192.6s85 192.6 189.6 192.6 189.6-86.4 189.6-192.6-85.2-192.6-189.6-192.6z" fill="#444344" p-id="11366"></path><path d="M645.8 266.4l179.8-230L870 73.6l-186 226.2-38.2-23.8" fill="#FFFFFF" p-id="11367"></path><path d="M687.4 320.4l-49.8-31.2 12.2-19.6-16.2-12.8L823.2 14l68.6 57.6-204.4 248.8z m-23.6-51.6l17 10.6 167.4-203.6-20.2-17-164.2 210z" fill="#444344" p-id="11368"></path><path d="M660.2 364.2l241.2-164.4 31 49-246 159-29.2-34.6" fill="#FFFFFF" p-id="11369"></path><path d="M683.4 428.2l-38-45 17.6-15-11.6-17L906 177.6l47.8 75.8-270.4 174.8z m-6.8-56.2l13 15.2 221.4-143-14.2-22.4L676.6 372z" fill="#444344" p-id="11370"></path><path d="M106 466.6a226 208.2 0 1 0 452 0 226 208.2 0 1 0-452 0Z" fill="#FFFFFF" p-id="11371"></path><path d="M332 690.4c-133.2 0-241.6-100.4-241.6-223.8S199 242.8 332 242.8s241.6 100.4 241.6 223.8S465.2 690.4 332 690.4z m0-416.4c-116 0-210.4 86.4-210.4 192.6 0 106.2 94.4 192.6 210.4 192.6s210.4-86.4 210.4-192.6c0-106.2-94.4-192.6-210.4-192.6z" fill="#444344" p-id="11372"></path><path d="M360 476a226 208.2 0 1 0 452 0 226 208.2 0 1 0-452 0Z" fill="#efb336" p-id="11373" data-spm-anchor-id="a313x.7781069.0.i35" class="selected"></path><path d="M586 699.8c-133.2 0-241.6-100.4-241.6-223.8S452.8 252.4 586 252.4s241.6 100.4 241.6 223.8S719.2 699.8 586 699.8z m0-416.2c-116 0-210.4 86.4-210.4 192.6 0 106.2 94.4 192.6 210.4 192.6s210.4-86.4 210.4-192.6c-0.2-106.4-94.4-192.6-210.4-192.6z" fill="#444344" p-id="11374"></path><path d="M115.6 501.6h685.6s30.8 194.6-320.2 325C360 795.8 137.8 699 115.6 501.6z" fill="#efb336" p-id="11375" data-spm-anchor-id="a313x.7781069.0.i33" class="selected"></path><path d="M481.8 842.8l-4.8-1.2c-38.4-9.8-137-39.4-225-102.4-90.6-65-141.8-144.4-152-236l-2-17.4h716.4l2 13.2c0.4 2.2 8.2 54.8-30.2 123.6-22 39.6-54.8 76.6-97.6 110.2-52.6 41.4-120.8 77.8-202.4 108.2l-4.4 1.8zM133.6 517.2c35.6 198.6 284 276.6 346.4 293 172-64.8 246-144.6 277.8-200.4 23.2-40.8 27.8-75 28.4-92.8H133.6z" fill="#444344" p-id="11376"></path></svg>