<?xml version="1.0" standalone="no"?><!DOCTYPE svg PUBLIC "-//W3C//DTD SVG 1.1//EN" "http://www.w3.org/Graphics/SVG/1.1/DTD/svg11.dtd"><svg t="1533212234391" class="icon" style="" viewBox="0 0 1024 1024" version="1.1" xmlns="http://www.w3.org/2000/svg" p-id="7139" xmlns:xlink="http://www.w3.org/1999/xlink" width="25" height="25"><defs><style type="text/css"></style></defs><path d="M477.866667 341.333333V204.8h68.266666v136.533333h136.533334v68.266667H546.133333v136.533333H477.866667V409.6H341.333333V341.333333h136.533334z m68.130133 409.6l-259.413333 262.826667a51.2 51.2 0 0 1-81.92-40.96V750.933333H68.266667a68.266667 68.266667 0 0 1-68.266667-68.266666V68.266667a68.266667 68.266667 0 0 1 68.266667-68.266667h887.466666a68.266667 68.266667 0 0 1 68.266667 68.266667v614.4a68.266667 68.266667 0 0 1-68.266667 68.266666H545.9968z m-273.066667 179.4048L517.461333 682.666667H955.733333V68.266667H68.266667v614.4h204.731733v247.671466z" p-id="7140"></path></svg>