<?xml version="1.0" standalone="no"?><!DOCTYPE svg PUBLIC "-//W3C//DTD SVG 1.1//EN" "http://www.w3.org/Graphics/SVG/1.1/DTD/svg11.dtd"><svg t="1533212197693" class="icon" style="" viewBox="0 0 1065 1024" version="1.1" xmlns="http://www.w3.org/2000/svg" p-id="6982" xmlns:xlink="http://www.w3.org/1999/xlink" width="26.0009765625" height="25"><defs><style type="text/css"></style></defs><path d="M525.1625 713.18691406c0-87.16992188 49.45429687-162.90175781 122.06953125-201.20273437-15.91523438-10.86855469-32.82714844-20.42402344-50.54589844-28.50820313 43.31601562-38.50664062 70.57441406-94.43144531 70.57441407-156.70019531C667.27636719 210.63886719 572.43359375 116.4921875 455.4265625 116.4921875c-116.99121094 0-211.83398438 94.14667969-211.83398438 210.28359375 0 62.26875 27.27421875 118.19355469 70.59023438 156.70019531C197.50800781 536.64804688 116.4921875 653.63925781 116.4921875 789.40917969l0 83.9109375C116.4921875 892.20957031 131.94863281 907.5078125 150.99628906 907.5078125L635.08203125 907.5078125C569.14296875 867.45078125 525.1625 795.40507812 525.1625 713.18691406zM755.17402344 530.984375c-101.59804688 0-183.97441406 81.58535156-183.97441406 182.21835938 0 100.63300781 82.37636719 182.21835938 183.97441406 182.21835937S939.1484375 813.81992188 939.1484375 713.18691406C939.1484375 612.55390625 856.78789062 530.984375 755.17402344 530.984375zM836.61699219 738.4203125l-57.63339844 0 0 58.67753906c0 13.7953125-11.34316406 24.9328125-25.26503906 24.82207031-13.76367188-0.11074219-24.86953125-11.18496094-24.86953125-24.82207031l0-58.67753906-55.10214844 0c-13.921875 0-25.17011719-11.23242188-25.059375-25.02773437 0.11074219-13.63710938 11.29570312-24.63222656 25.059375-24.63222657l55.10214844 0 0-59.46855468c0-13.7953125 11.34316406-24.9328125 25.26503906-24.82207032 13.76367188 0.11074219 24.86953125 11.20078125 24.86953125 24.82207032l0 59.46855468 57.63339844 0c13.921875 0 25.17011719 11.23242188 25.059375 25.02773438C861.565625 727.42519531 850.38066406 738.4203125 836.61699219 738.4203125z" p-id="6983"></path></svg>