<?xml version="1.0" standalone="no"?><!DOCTYPE svg PUBLIC "-//W3C//DTD SVG 1.1//EN" "http://www.w3.org/Graphics/SVG/1.1/DTD/svg11.dtd"><svg t="1533293888125" class="icon" style="" viewBox="0 0 1024 1024" version="1.1" xmlns="http://www.w3.org/2000/svg" p-id="34043" xmlns:xlink="http://www.w3.org/1999/xlink" width="35" height="35"><defs><style type="text/css"></style></defs><path d="M511.291 3.964c-280.377 0-508.467 228.091-508.467 508.435 0 280.377 228.091 508.467 508.467 508.467s508.467-228.091 508.467-508.467c0-280.345-228.091-508.435-508.467-508.435v0zM511.291 967.253c-250.819 0-454.861-204.034-454.861-454.854 0-250.787 204.042-454.827 454.861-454.827s454.859 204.038 454.859 454.827c0 250.819-204.038 454.854-454.859 454.854v0zM703.072 475.834h-155.574v-155.215c0-14.796-20.946-26.805-35.742-26.805s-35.737 12.009-35.737 26.805v155.215h-156.507c-14.796 0-26.804 20.946-26.804 35.742s12.007 35.737 26.804 35.737h156.507v156.899c0 14.796 20.941 26.804 35.737 26.804s35.742-12.007 35.742-26.804v-156.899h155.575c14.796 0 26.804-20.941 26.804-35.737-0.001-14.796-11.977-35.742-26.805-35.742v0zM703.072 475.834z" p-id="34044" fill="#ffffff"></path></svg>