<?xml version="1.0" standalone="no"?><!DOCTYPE svg PUBLIC "-//W3C//DTD SVG 1.1//EN" "http://www.w3.org/Graphics/SVG/1.1/DTD/svg11.dtd"><svg t="1533130753632" class="icon" style="" viewBox="0 0 1042 1024" version="1.1" xmlns="http://www.w3.org/2000/svg" p-id="19578" xmlns:xlink="http://www.w3.org/1999/xlink" width="203.515625" height="200"><defs><style type="text/css"></style></defs><path d="M631.918 47.177a8.229 8.229 0 0 1 1.755 0.128c1.097 5.87 0.86 20.791-8.503 45.934l-81.097 220.123c-21.01 56.924-69.668 98.195-115.712 98.195-8.594 0-17.006-1.427-24.832-4.37a99.493 99.493 0 0 1-58.88-127.69c23.497-63.689 113.006-153.82 191.47-192.786l52.59-26.149c24.502-12.068 38.326-13.367 43.209-13.367z m96.457 274.231c11.648 0 23.076 2.066 33.975 6.09 63.67 23.515 153.82 113.005 192.786 191.487l26.13 52.59c11.977 24.064 13.715 38.857 13.385 44.855a37.01 37.01 0 0 1-6.089 0.439c-7.314 0-20.04-1.536-39.954-8.832l-220.123-81.098c-69.45-25.581-112.458-89.91-93.843-140.544 14.373-38.857 52.041-64.987 93.733-64.987zM70.528 407.845c7.296 0 20.023 1.517 39.954 8.813l220.124 81.116c35.364 13.056 65.517 36.9 82.834 65.426 15.451 25.582 19.383 52.242 10.99 75.1a100.041 100.041 0 0 1-93.623 64.987 97.61 97.61 0 0 1-33.957-6.09c-63.689-23.405-153.82-113.005-192.786-191.487l-26.149-52.572c-11.958-24.064-13.714-38.875-13.366-44.855 1.298-0.219 3.254-0.438 5.979-0.438z m560.201 205.202c8.594 0 16.988 1.426 24.814 4.352a99.493 99.493 0 0 1 58.898 127.707c-23.406 63.671-113.006 153.82-191.488 192.896l-52.571 26.13c-24.284 12.07-38.217 13.386-43.118 13.386-0.658 0-1.298 0-1.737-0.11-1.097-5.87-0.878-20.79 8.484-45.934l81.098-220.123c20.809-56.942 69.577-98.304 115.62-98.304zM631.918 0.73c-17.299 0-38.857 5.87-63.78 18.176l-52.59 26.13c-90.24 44.837-186.698 143.141-214.455 218.369-27.758 75.447 11.099 159.689 86.436 187.465a117.34 117.34 0 0 0 40.832 7.186c64.549 0 130.743-50.834 159.36-128.676l81.116-220.124C694.07 40.887 677.32 0.713 631.917 0.713z m96.457 274.213c-59.429 0-115.602 36.571-137.271 95.47-27.758 75.337 26.88 165.485 121.38 200.192l220.124 81.115c21.65 7.936 40.375 11.758 56.046 11.758 52.59 0 68.919-42.898 34.413-112.457l-26.148-52.59c-44.837-90.24-143.14-186.697-218.35-214.455a143.03 143.03 0 0 0-50.194-9.033zM70.528 361.253c-52.681 0-68.9 42.898-34.395 112.457l26.13 52.571c44.836 90.258 143.14 186.697 218.368 214.455a143.909 143.909 0 0 0 50.066 8.942c59.447 0 115.62-36.572 137.29-95.47 27.757-75.337-26.88-165.486-121.381-200.21l-220.014-80.97c-21.669-7.954-40.503-11.757-56.064-11.757z m560.201 205.312c-64.548 0-130.743 50.834-159.378 128.676l-81.097 220.124C365.11 983.717 381.879 1024 427.264 1024c17.317 0 38.857-5.87 63.799-18.176l52.571-26.13c90.259-44.855 186.697-143.16 214.455-218.368 27.758-75.337-11.209-159.598-86.546-187.356a115.127 115.127 0 0 0-40.814-7.405z" p-id="19579"></path></svg>