<?xml version="1.0" standalone="no"?><!DOCTYPE svg PUBLIC "-//W3C//DTD SVG 1.1//EN" "http://www.w3.org/Graphics/SVG/1.1/DTD/svg11.dtd"><svg t="1533130759880" class="icon" style="" viewBox="0 0 1024 1024" version="1.1" xmlns="http://www.w3.org/2000/svg" p-id="19703" xmlns:xlink="http://www.w3.org/1999/xlink" width="200" height="200"><defs><style type="text/css"></style></defs><path d="M450.81472 654.25792c27.52384-74.74432-26.7136-164.06016-120.34688-198.464L112.44032 375.51744c-21.45152-7.82464-40.20608-11.6032-55.58656-11.6032-52.21376 0-68.2688 42.49856-34.13376 111.44192l25.90464 52.07808c44.52352 89.45024 141.93408 185.1072 216.544 212.63104a142.46784 142.46784 0 0 0 49.64992 8.90496c58.8224 0 114.54336-36.29312 135.99616-94.71232z m-79.73632-201.568c13.2224 4.8576 26.7136 7.15008 40.47488 7.15008 63.95136 0 129.65632-50.45888 157.98912-127.63264l80.41088-218.2976C675.04768 46.1824 658.31808 6.2464 613.39136 6.2464c-17.13408 0-38.58688 5.80096-63.2768 18.07872l-52.07808 25.90464c-89.45024 44.52352-185.1072 141.93408-212.63104 216.544-27.52384 74.87872 11.06304 158.3936 85.67296 185.91616z m630.2016 99.29984l-25.90464-52.07808c-44.52352-89.58592-141.93408-185.1072-216.544-212.76544-16.45952-6.20672-33.1904-8.90496-49.78432-8.90496-58.95936 0-114.68032 36.29312-136.13184 94.71232-27.52384 74.74432 26.7136 164.06016 120.34688 198.464l218.2976 80.41088c21.45152 7.82464 40.0704 11.6032 55.58656 11.6032 52.07808 0.00128 68.2688-42.49856 34.13376-111.44192z m-348.62848 22.80192c-13.2224-4.992-26.7136-7.28576-40.47488-7.28576-63.95136 0-129.65632 50.45888-157.98912 127.63264l-80.41088 218.02752c-24.96 67.72864-8.3648 107.66464 36.6976 107.66464 17.13408 0 38.58688-5.80096 63.2768-18.07872l52.07808-25.90464c89.45024-44.52352 185.1072-141.93408 212.63104-216.544 27.52256-74.47424-11.06304-157.98912-85.80864-185.51168z" p-id="19704" fill="#1296db"></path></svg>