<?xml version="1.0" standalone="no"?><!DOCTYPE svg PUBLIC "-//W3C//DTD SVG 1.1//EN" "http://www.w3.org/Graphics/SVG/1.1/DTD/svg11.dtd"><svg t="1533170390225" class="icon" style="" viewBox="0 0 1024 1024" version="1.1" xmlns="http://www.w3.org/2000/svg" p-id="3431" xmlns:xlink="http://www.w3.org/1999/xlink" width="200" height="200"><defs><style type="text/css"></style></defs><path d="M432.965818 868.189091c-238.103273 0-431.825455-193.722182-431.825455-431.848727S194.839273 4.514909 432.965818 4.514909s431.848727 193.722182 431.848727 431.825455c0 49.338182-8.261818 97.745455-24.576 143.918545-21.224727 59.997091-56.296727 115.642182-101.422545 160.930909C657.198545 823.086545 548.584727 868.189091 432.965818 868.189091zM432.965818 51.060364c-212.433455 0-385.28 172.846545-385.28 385.28 0 212.456727 172.846545 385.303273 385.28 385.303273 103.168 0 200.075636-40.238545 272.896-113.314909 40.261818-40.401455 71.563636-90.065455 90.507636-143.569455 14.522182-41.169455 21.899636-84.363636 21.899636-128.418909C818.245818 223.906909 645.399273 51.060364 432.965818 51.060364z" p-id="3432"></path><path d="M242.455273 594.688c-5.957818 0-11.915636-2.280727-16.453818-6.818909-83.549091-83.549091-83.549091-219.508364 0-303.057455 9.099636-9.099636 23.808-9.099636 32.907636 0 9.099636 9.076364 9.099636 23.808 0 32.907636-65.419636 65.419636-65.419636 171.845818 0 237.242182 9.099636 9.099636 9.099636 23.808 0 32.907636C254.370909 592.430545 248.413091 594.688 242.455273 594.688z" p-id="3433"></path><path d="M999.610182 1019.485091c-5.957818 0-11.915636-2.280727-16.453818-6.818909L708.701091 738.234182c-9.099636-9.099636-9.099636-23.808 0-32.907636s23.808-9.099636 32.907636 0l274.455273 274.432c9.099636 9.099636 9.099636 23.808 0 32.907636C1011.525818 1017.204364 1005.568 1019.485091 999.610182 1019.485091z" p-id="3434"></path></svg>