<?xml version="1.0" standalone="no"?><!DOCTYPE svg PUBLIC "-//W3C//DTD SVG 1.1//EN" "http://www.w3.org/Graphics/SVG/1.1/DTD/svg11.dtd"><svg t="1533212034175" class="icon" style="" viewBox="0 0 1024 1024" version="1.1" xmlns="http://www.w3.org/2000/svg" p-id="3563" xmlns:xlink="http://www.w3.org/1999/xlink" width="25" height="25"><defs><style type="text/css"></style></defs><path d="M74.3 355.2c22 0 39.9-17.9 39.9-39.9V98.1c0-9.6 6.2-17.6 13.6-17.6h202c22 0 39.9-17.9 39.9-39.9S351.8 0.6 329.8 0.6h-202C76.3 0.6 34.4 44.3 34.4 98v217.2c0 22.1 17.9 40 39.9 40zM692.3 80.5h202c7.4 0 13.6 8.1 13.6 17.6v217.2c0 22 17.9 39.9 39.9 39.9s39.9-17.9 39.9-39.9V98.1c0-53.7-41.9-97.4-93.4-97.4h-202c-22 0-39.9 17.9-39.9 39.9s17.8 39.9 39.9 39.9zM329.8 942.5h-202c-7.4 0-13.6-8.1-13.6-17.6V707.7c0-22-17.9-39.9-39.9-39.9s-39.9 17.9-39.9 39.9v217.2c0 53.7 41.9 97.4 93.4 97.4h202c22 0 39.9-17.9 39.9-39.9s-17.9-39.9-39.9-39.9zM947.7 667.8c-22 0-39.9 17.9-39.9 39.9v217.2c0 9.6-6.2 17.6-13.6 17.6h-202c-22 0-39.9 17.9-39.9 39.9s17.9 39.9 39.9 39.9h202c51.5 0 93.4-43.7 93.4-97.4V707.7c0.1-22-17.8-39.9-39.9-39.9z" p-id="3564"></path><path d="M687.8 507.4c21.9 0 39.8-17.8 39.8-39.7 0-21.9-17.8-39.8-39.7-39.8l-91.8-0.1 102.8-122.5c14.1-16.8 12-41.8-4.9-56-16.9-14.1-42-11.9-56 4.9L516 399.4 394.1 254.2c-14-16.7-39.1-19-56-4.9-16.8 14.1-19 39.2-4.9 56l102.7 122.4-96.9-0.1c-21.9 0-39.8 17.8-39.8 39.7 0 21.9 17.8 39.8 39.7 39.8l134.8 0.1v56.1l-134.7-0.1c-21.9 0-39.8 17.8-39.8 39.7 0 21.9 17.8 39.8 39.7 39.8l134.7 0.1-0.1 103.5c0 21.9 17.8 39.8 39.7 39.8 21.9 0 39.7-17.8 39.8-39.7l0.1-103.5 134.7 0.1c21.9 0 39.8-17.8 39.8-39.7 0-21.9-17.8-39.8-39.7-39.8l-134.7-0.1v-56.1l134.6 0.1z" p-id="3565"></path></svg>