<?xml version="1.0" standalone="no"?><!DOCTYPE svg PUBLIC "-//W3C//DTD SVG 1.1//EN" "http://www.w3.org/Graphics/SVG/1.1/DTD/svg11.dtd"><svg t="1533284031250" class="icon" style="" viewBox="0 0 1024 1024" version="1.1" xmlns="http://www.w3.org/2000/svg" p-id="14669" xmlns:xlink="http://www.w3.org/1999/xlink" width="35" height="35"><defs><style type="text/css"></style></defs><path d="M782.933 953.6c-19.2-57.6-89.6-102.4-134.4-102.4-108.8 0-115.2-70.4-115.2-83.2h32s25.6 0 19.2-25.6l-38.4-83.2c38.4-6.4 70.4-25.6 102.4-51.2 12.8-19.2 32-38.4 44.8-51.2 64-96 89.6-185.6 96-236.8v-12.8-12.8-12.8-12.8c-6.4-147.2-128-268.8-281.6-268.8-153.6 0-281.6 121.6-281.6 281.6V326.4c12.8 121.6 70.4 211.2 102.4 256l6.4 6.4c6.4 0 12.8 6.4 19.2 12.8l6.4 6.4 6.4 6.4c25.6 25.6 64 44.8 108.8 57.6l-32 70.4c-12.8 32 19.2 32 19.2 32h32c12.8 121.6 102.4 121.6 140.8 121.6 102.4 12.8 108.8 96 108.8 108.8 0 6.4 6.4 19.2 25.6 19.2 19.2 0 19.2-25.6 19.2-25.6s0-12.8-6.4-44.8z" p-id="14670" fill="#eb3d16"></path></svg>