<?xml version="1.0" standalone="no"?><!DOCTYPE svg PUBLIC "-//W3C//DTD SVG 1.1//EN" "http://www.w3.org/Graphics/SVG/1.1/DTD/svg11.dtd"><svg t="1533206623371" class="icon" style="" viewBox="0 0 1024 1024" version="1.1" xmlns="http://www.w3.org/2000/svg" p-id="2207" xmlns:xlink="http://www.w3.org/1999/xlink" width="40" height="40"><defs><style type="text/css"></style></defs><path d="M984.70874074 478.41659258L557.5111111 478.41659258 557.5111111 51.21896296C557.5111111 29.47072 540.42320592 12.3828148 518.67496295 12.3828148 496.92671999 12.3828148 479.83881481 29.47072 479.83881481 51.21896296L479.83881481 478.41659258 52.64118518 478.41659258C30.89294222 478.41659258 13.80503702 495.50449777 13.80503702 517.25274073 13.80503702 539.0009837 30.89294222 556.08888888 52.64118518 556.08888888L479.83881481 556.08888888l0 427.19762963C479.83881481 1005.03476147 496.92671999 1022.12266666 518.67496295 1022.12266666 540.42320592 1022.12266666 557.5111111 1005.03476147 557.5111111 983.28651851L557.5111111 556.08888888l427.19762964 0C1006.45698369 556.08888888 1023.54488889 539.0009837 1023.54488889 517.25274073 1023.54488889 495.50449777 1006.45698369 478.41659258 984.70874074 478.41659258z" p-id="2208" fill="#e6e6e6"></path></svg>