<?xml version="1.0" standalone="no"?><!DOCTYPE svg PUBLIC "-//W3C//DTD SVG 1.1//EN" "http://www.w3.org/Graphics/SVG/1.1/DTD/svg11.dtd"><svg t="1533283169917" class="icon" style="" viewBox="0 0 1024 1024" version="1.1" xmlns="http://www.w3.org/2000/svg" p-id="2616" xmlns:xlink="http://www.w3.org/1999/xlink" width="35" height="35"><defs><style type="text/css"></style></defs><path d="M322.56 271.36c0 71.68-56.32 128-122.88 128-66.56 0-122.88-56.32-122.88-128s56.32-128 122.88-128c71.68 0 122.88 56.32 122.88 128M558.08 399.36c102.4 0 189.44-87.04 189.44-199.68S665.6 0 558.08 0 368.64 87.04 368.64 199.68c5.12 112.64 87.04 199.68 189.44 199.68z m363.52 133.12l-81.92 51.2v-66.56c0-56.32-40.96-97.28-92.16-97.28H92.16c-51.2 0-92.16 46.08-92.16 97.28v409.6C0 983.04 40.96 1024 92.16 1024h655.36c51.2 0 92.16-46.08 92.16-97.28v-30.72l81.92 51.2c46.08 25.6 102.4-5.12 102.4-61.44v-286.72c-5.12-61.44-56.32-92.16-102.4-66.56z" fill="#E94744" p-id="2617"></path><path d="M368.64 599.04l163.84 97.28c20.48 15.36 20.48 46.08 0 61.44l-163.84 97.28c-20.48 15.36-46.08-5.12-46.08-30.72v-199.68c-5.12-20.48 20.48-35.84 46.08-25.6" fill="#FFFFFF" p-id="2618"></path></svg>