<?xml version="1.0" standalone="no"?><!DOCTYPE svg PUBLIC "-//W3C//DTD SVG 1.1//EN" "http://www.w3.org/Graphics/SVG/1.1/DTD/svg11.dtd"><svg t="1533130673611" class="icon" style="" viewBox="0 0 1024 1024" version="1.1" xmlns="http://www.w3.org/2000/svg" p-id="17667" xmlns:xlink="http://www.w3.org/1999/xlink" width="200" height="200"><defs><style type="text/css"></style></defs><path d="M504.367233 16.446621c278.173839 0 503.762593 225.58674 503.762593 503.766621 0 278.175853-225.589761 503.7636-503.762593 503.7636-278.177866 0-503.764607-225.587747-503.764607-503.7636C0.60162 242.033361 226.18836 16.446621 504.367233 16.446621L504.367233 16.446621zM320.950257 425.641648c-16.901737 92.27386-24.023505 168.699194 37.643772 235.093842 55.674238 59.937431 161.78384 66.399682 232.029861 27.441913 73.691615-40.863821 117.385818-122.286375 98.002085-206.515145-23.070982-100.376343-100.344122-160.063057-198.254579-162.721259 32.886193 54.200144 73.726856 148.258221-3.10325 187.394211C407.372044 547.001679 353.106452 490.111112 320.950257 425.641648L320.950257 425.641648zM504.367233 145.153964c-207.108206 0-375.059277 167.948051-375.059277 375.05827 0 207.109213 167.951071 375.05827 375.059277 375.05827 207.107199 0 375.056256-167.949057 375.056256-375.05827C879.42349 313.103022 711.474432 145.153964 504.367233 145.153964z" p-id="17668" fill="#707070"></path></svg>