<?xml version="1.0" standalone="no"?><!DOCTYPE svg PUBLIC "-//W3C//DTD SVG 1.1//EN" "http://www.w3.org/Graphics/SVG/1.1/DTD/svg11.dtd"><svg t="1533283605872" class="icon" style="" viewBox="0 0 1107 1024" version="1.1" xmlns="http://www.w3.org/2000/svg" p-id="9050" xmlns:xlink="http://www.w3.org/1999/xlink" width="37.8369140625" height="35"><defs><style type="text/css"></style></defs><path d="M586.802892 475.802562L378.333443 317.520203c-27.023817-23.163272-50.187089-11.581636-50.187089 27.023817v347.449081c0 34.744908 23.163272 46.326544 50.187089 23.163272l208.469449-158.282359c23.163272-15.442181 27.023817-42.465999 15.442181-61.768726-3.860545-11.581636-7.721091-15.442181-15.442181-19.302726z" fill="#ffffff" p-id="9051" data-spm-anchor-id="a313x.7781069.0.i24" class="selected"></path><path d="M1057.789423 406.312746C841.598884 197.843297 559.779074 74.305846 389.915079 8.676576c-73.350361-27.023817-154.421814 11.581636-181.445631 81.071452-3.860545 7.721091-3.860545 15.442181-7.72109 23.163272v15.442181C359.030717 178.540571 613.826709 275.054204 810.714521 429.476018c42.465999 30.884363 54.047635 92.653088 23.163272 135.119087-7.721091 11.581636-15.442181 19.302727-27.023817 23.163272-185.306176 131.258542-389.915079 235.493266-606.105618 304.983081l3.860545 11.581636c11.581636 77.210907 84.931997 127.397996 162.142904 115.816361 11.581636 0 19.302727-3.860545 30.884363-7.721091 239.353811-96.513633 463.265441-231.63272 660.153253-401.496715 57.90818-50.187089 65.629271-138.979632 15.442181-196.887813-7.721091 0-11.581636-3.860545-15.442181-7.72109z" fill="#1296db" p-id="9052" data-spm-anchor-id="a313x.7781069.0.i22" class=""></path><path d="M204.608903 128.353481h-3.860545c-77.210907-23.163272-158.282359 15.442181-169.863995 81.071452-42.465999 200.748358-42.465999 405.357261 0 606.105619 15.442181 65.629271 100.374179 108.09527 173.72454 81.071452h3.860545C162.142904 641.806011 162.142904 383.149474 204.608903 128.353481z" fill="#1296db" p-id="9053" data-spm-anchor-id="a313x.7781069.0.i21" class=""></path></svg>