<?xml version="1.0" standalone="no"?><!DOCTYPE svg PUBLIC "-//W3C//DTD SVG 1.1//EN" "http://www.w3.org/Graphics/SVG/1.1/DTD/svg11.dtd"><svg t="1533281871596" class="icon" style="" viewBox="0 0 1024 1024" version="1.1" xmlns="http://www.w3.org/2000/svg" p-id="1547" xmlns:xlink="http://www.w3.org/1999/xlink" width="70" height="70"><defs><style type="text/css"></style></defs><path d="M512 294.59968c-68.89984 0-124.99968 56.09984-124.99968 124.99968S443.10016 544.59904 512 544.59904s124.99968-56.09984 124.99968-124.99968S580.89984 294.59968 512 294.59968z" fill="#eb3d16" p-id="1548"></path><path d="M869.20192 268.8c-19.59936-46.19776-47.49824-87.59808-83.0976-123.20256s-76.99968-63.60064-123.20256-83.0976C615.10144 42.30144 564.3008 32 512 32s-103.10144 10.30144-150.79936 30.40256c-46.19776 19.59936-87.59808 47.49824-123.20256 83.0976S174.40256 222.49984 154.90048 268.6976c-20.1984 47.80032-30.49984 98.60096-30.49984 150.90176 0 88.89856 62.19776 211.70176 184.80128 364.99968 89.09824 111.40096 176.79872 197.00224 180.50048 200.6016L512 1006.8992l22.2976-21.69856c3.70176-3.59936 91.40224-89.20064 180.59776-200.4992 122.5984-153.29792 184.80128-276.10112 184.80128-364.99968 0.00512-52.3008-10.29632-103.10144-30.49472-150.90176zM512 608.59904c-104.20224 0-188.99968-84.80256-188.99968-188.99968S407.79776 230.59968 512 230.59968s188.99968 84.80256 188.99968 188.99968c0 104.29952-84.79744 188.99968-188.99968 188.99968z" fill="#eb3d16" p-id="1549"></path></svg>