<?xml version="1.0" standalone="no"?><!DOCTYPE svg PUBLIC "-//W3C//DTD SVG 1.1//EN" "http://www.w3.org/Graphics/SVG/1.1/DTD/svg11.dtd"><svg t="1533211897140" class="icon" style="" viewBox="0 0 1024 1024" version="1.1" xmlns="http://www.w3.org/2000/svg" p-id="2310" xmlns:xlink="http://www.w3.org/1999/xlink" width="25" height="25"><defs><style type="text/css"></style></defs><path d="M129.357671 222.400253c76.06542-0.278339 152.152329 1.136893 228.211609 1.581008 53.382814 0.305969 85.356017 41.089837 108.358917 80.166831 100.890828 1.070378 201.794959 1.375324 302.671461 3.222391 37.915541 0.691755 75.02881 27.755134 75.057463 64.790632 0.066515 81.462337-2.139733 162.91751-3.189645 244.37166-68.690452 0-137.394207 0-206.073402 0-34.046421 0-55.720046 1.715061-80.346933 26.25906-39.73191 39.621393-56.344263 126.771265-71.865771 179.648566-3.269463 13.116739-6.53995 26.234501-9.807367 39.349193-106.924241 0-213.828017 0-320.744072 0-39.588647 0-86.425372-17.247826-86.538959-65.581648-0.491187-166.518524-0.9967-333.049329-1.49505-499.575016C63.495638 260.58697 84.426343 222.558865 129.357671 222.400253L129.357671 222.400253zM555.683407 795.809881l-27.602661 65.568345c105.158015 0.544399 210.313983 1.089821 315.456648 1.620917 50.616818 0.37146 48.928363-68.676126 0.411369-68.412113L555.683407 795.809881 555.683407 795.809881zM568.361147 740.061183l361.262904 0.400113c35.826973 0.060375 40.637536-66.392106-3.216251-66.392106-109.820198-0.134053-219.61379-0.26606-329.436034-0.406253L568.361147 740.061183z" p-id="2311" fill="#707070"></path></svg>