<?xml version="1.0" standalone="no"?><!DOCTYPE svg PUBLIC "-//W3C//DTD SVG 1.1//EN" "http://www.w3.org/Graphics/SVG/1.1/DTD/svg11.dtd"><svg t="1533345739149" class="icon" style="" viewBox="0 0 1306 1024" version="1.1" xmlns="http://www.w3.org/2000/svg" p-id="2129" xmlns:xlink="http://www.w3.org/1999/xlink" width="19.130859375" height="15"><defs><style type="text/css"></style></defs><path d="M927.315001 340.613489L653.167156 1024l653.167156-683.386511H927.315001zM0 340.613489l653.167156 683.386511-274.147845-683.386511H0z" fill="#F1B900" p-id="2130"></path><path d="M379.019311 340.613489l274.147845 683.386511 274.147845-683.386511H379.019311zM379.019311 340.613489H0L274.049043 0h379.075769l-274.105501 340.613489zM1306.334312 340.613489H927.315001L653.308302 0h379.061655l273.964355 340.613489z" fill="#F7D566" p-id="2131"></path><path d="M927.131511 340.613489H379.019311L653.124812 0h0.042344l273.964355 340.613489z" fill="#FAE6A3" p-id="2132"></path><path d="M274.049043 0l104.970268 340.613489L653.124812 0H274.049043zM1032.101779 0l-104.970268 340.613489L653.124812 0h378.976967z" fill="#ECDD91" p-id="2133"></path><path d="M486.177342 223.504666l-11.291679-2.82292a45.745413 45.745413 0 0 1-33.169306-33.197535l-2.921722-11.291679a3.669796 3.669796 0 0 0-7.057299 0l-2.921722 11.291679a45.731299 45.731299 0 0 1-33.169306 33.197535l-11.291679 2.82292a3.698025 3.698025 0 0 0 0 7.170216l11.291679 2.822919a45.70307 45.70307 0 0 1 33.169306 33.169307l2.921722 11.291678a3.655681 3.655681 0 0 0 7.057299 0l2.921722-11.291678a45.70307 45.70307 0 0 1 33.169306-33.169307l11.291679-2.822919a3.698025 3.698025 0 0 0 0-7.170216zM456.480227 366.951329l-16.034184-4.036775a64.927153 64.927153 0 0 1-46.987498-46.945154l-3.952087-16.005955a5.236516 5.236516 0 0 0-10.162511 0l-4.05089 16.005955a64.927153 64.927153 0 0 1-46.93104 46.959269l-16.034183 4.036775a5.222401 5.222401 0 0 0 0 10.134282l16.034183 4.050889a64.927153 64.927153 0 0 1 46.93104 46.973384l4.05089 16.020069a5.236516 5.236516 0 0 0 10.162511 0l3.952087-16.020069a64.927153 64.927153 0 0 1 46.93104-46.973384l16.034184-4.050889a5.222401 5.222401 0 0 0 0.056458-10.148397zM586.60271 321.078885l-14.114599-3.556879a57.065321 57.065321 0 0 1-41.2852-41.271086l-3.556879-14.114598a4.601359 4.601359 0 0 0-8.93454 0l-3.556879 14.114598a56.924175 56.924175 0 0 1-41.242857 41.271086l-14.114598 3.556879a4.587244 4.587244 0 0 0 0 8.906311l14.114598 3.570994a56.853602 56.853602 0 0 1 41.285201 41.256971l3.556878 14.114598a4.615474 4.615474 0 0 0 8.934541 0l3.556879-14.114598a56.994748 56.994748 0 0 1 41.271086-41.256971l14.114598-3.585108a4.615474 4.615474 0 0 0-0.028229-8.892197z" fill="#FFFFFF" p-id="2134"></path></svg>